<svg width="100" height="86" viewBox="0 0 100 86" fill="none" xmlns="http://www.w3.org/2000/svg">
<path d="M25 0.25C38.8125 0.25 50 11.2188 50 24.75C50 11.2188 61.1875 0.25 75 0.25C88.8125 0.25 100 11.2188 100 24.75C100 45.1438 79.7875 52.3375 52.45 84.8C52.149 85.1565 51.7739 85.4431 51.3507 85.6396C50.9275 85.8362 50.4666 85.938 50 85.938C49.5334 85.938 49.0725 85.8362 48.6493 85.6396C48.2261 85.4431 47.851 85.1565 47.55 84.8C20.2125 52.3375 0 45.1438 0 24.75C0 11.2188 11.1875 0.25 25 0.25Z" fill="#E92833"/>
</svg>
